<mxfile host="app.diagrams.net" modified="2021-09-03T20:55:15.224Z" agent="5.0 (Windows NT 10.0; Win64; x64) AppleWebKit/537.36 (KHTML, like Gecko) Chrome/92.0.4515.159 Safari/537.36" etag="B-lTWSEiyjVjq7q5v1S1" version="14.9.5" type="github" pages="2">
  <diagram id="2dYL0DR2cp1N7xRwuOvv" name="Page-1">
    <mxGraphModel dx="1632" dy="444" grid="1" gridSize="10" guides="1" tooltips="1" connect="1" arrows="1" fold="1" page="1" pageScale="1" pageWidth="850" pageHeight="1100" math="0" shadow="0">
      <root>
        <mxCell id="0" />
        <mxCell id="1" parent="0" />
        <mxCell id="lkx-MOZj-w0_yK4KZ_88-7" style="edgeStyle=orthogonalEdgeStyle;rounded=0;orthogonalLoop=1;jettySize=auto;html=1;exitX=1;exitY=1;exitDx=0;exitDy=0;" edge="1" parent="1" source="lkx-MOZj-w0_yK4KZ_88-1">
          <mxGeometry relative="1" as="geometry">
            <mxPoint x="730" y="250" as="targetPoint" />
          </mxGeometry>
        </mxCell>
        <mxCell id="lkx-MOZj-w0_yK4KZ_88-1" value="" style="rounded=0;whiteSpace=wrap;html=1;" vertex="1" parent="1">
          <mxGeometry x="500" y="230" width="120" height="60" as="geometry" />
        </mxCell>
        <mxCell id="lkx-MOZj-w0_yK4KZ_88-2" value="Client" style="whiteSpace=wrap;html=1;aspect=fixed;" vertex="1" parent="1">
          <mxGeometry x="130" y="130" width="80" height="80" as="geometry" />
        </mxCell>
        <mxCell id="lkx-MOZj-w0_yK4KZ_88-3" value="" style="endArrow=classic;html=1;entryX=-0.022;entryY=0.633;entryDx=0;entryDy=0;entryPerimeter=0;exitX=0.992;exitY=0.667;exitDx=0;exitDy=0;exitPerimeter=0;startArrow=none;" edge="1" parent="1" source="lkx-MOZj-w0_yK4KZ_88-13" target="lkx-MOZj-w0_yK4KZ_88-1">
          <mxGeometry width="50" height="50" relative="1" as="geometry">
            <mxPoint x="250" y="180" as="sourcePoint" />
            <mxPoint x="310" y="180" as="targetPoint" />
          </mxGeometry>
        </mxCell>
        <mxCell id="lkx-MOZj-w0_yK4KZ_88-10" style="edgeStyle=orthogonalEdgeStyle;rounded=0;orthogonalLoop=1;jettySize=auto;html=1;exitX=1;exitY=0.5;exitDx=0;exitDy=0;entryX=0.583;entryY=1;entryDx=0;entryDy=0;entryPerimeter=0;" edge="1" parent="1" source="lkx-MOZj-w0_yK4KZ_88-4" target="lkx-MOZj-w0_yK4KZ_88-1">
          <mxGeometry relative="1" as="geometry" />
        </mxCell>
        <mxCell id="lkx-MOZj-w0_yK4KZ_88-4" value="Client" style="rounded=0;whiteSpace=wrap;html=1;" vertex="1" parent="1">
          <mxGeometry x="110" y="380" width="120" height="60" as="geometry" />
        </mxCell>
        <mxCell id="lkx-MOZj-w0_yK4KZ_88-9" style="edgeStyle=orthogonalEdgeStyle;rounded=0;orthogonalLoop=1;jettySize=auto;html=1;exitX=1;exitY=0.75;exitDx=0;exitDy=0;entryX=0.25;entryY=1;entryDx=0;entryDy=0;" edge="1" parent="1" source="lkx-MOZj-w0_yK4KZ_88-5" target="lkx-MOZj-w0_yK4KZ_88-1">
          <mxGeometry relative="1" as="geometry" />
        </mxCell>
        <mxCell id="lkx-MOZj-w0_yK4KZ_88-5" value="Client" style="whiteSpace=wrap;html=1;aspect=fixed;" vertex="1" parent="1">
          <mxGeometry x="130" y="260" width="80" height="80" as="geometry" />
        </mxCell>
        <mxCell id="lkx-MOZj-w0_yK4KZ_88-11" value="&lt;h1&gt;Heading&lt;/h1&gt;&lt;p&gt;Lorem ipsum dolor sit amet, consectetur adipisicing elit, sed do eiusmod tempor incididunt ut labore et dolore magna aliqua.&lt;/p&gt;" style="text;html=1;strokeColor=none;fillColor=none;spacing=5;spacingTop=-20;whiteSpace=wrap;overflow=hidden;rounded=0;" vertex="1" parent="1">
          <mxGeometry x="-190" y="40" width="190" height="120" as="geometry" />
        </mxCell>
        <mxCell id="lkx-MOZj-w0_yK4KZ_88-12" value="Text" style="text;html=1;strokeColor=none;fillColor=none;align=center;verticalAlign=middle;whiteSpace=wrap;rounded=0;" vertex="1" parent="1">
          <mxGeometry x="370" y="240" width="40" height="20" as="geometry" />
        </mxCell>
        <mxCell id="lkx-MOZj-w0_yK4KZ_88-14" value="Profiile Serv ice" style="text;html=1;strokeColor=none;fillColor=none;align=center;verticalAlign=middle;whiteSpace=wrap;rounded=0;" vertex="1" parent="1">
          <mxGeometry x="600" y="110" width="40" height="20" as="geometry" />
        </mxCell>
        <mxCell id="lkx-MOZj-w0_yK4KZ_88-15" value="name,&lt;br&gt;employeeId,&lt;br&gt;nobileNo,&lt;br&gt;location,&lt;br&gt;salary,&lt;br&gt;department,&lt;br&gt;managerName,&lt;br&gt;managerId,&lt;br&gt;workLocation,&lt;br&gt;isnewHire,&lt;br&gt;Tenure&lt;br&gt;" style="shape=process;whiteSpace=wrap;html=1;backgroundOutline=1;" vertex="1" parent="1">
          <mxGeometry x="670" y="210" width="120" height="250" as="geometry" />
        </mxCell>
        <mxCell id="lkx-MOZj-w0_yK4KZ_88-13" value="Proflie" style="text;html=1;strokeColor=none;fillColor=none;align=center;verticalAlign=middle;whiteSpace=wrap;rounded=0;" vertex="1" parent="1">
          <mxGeometry x="530" y="240" width="70" height="30" as="geometry" />
        </mxCell>
        <mxCell id="lkx-MOZj-w0_yK4KZ_88-16" value="" style="endArrow=none;html=1;entryX=-0.022;entryY=0.633;entryDx=0;entryDy=0;entryPerimeter=0;exitX=0.992;exitY=0.667;exitDx=0;exitDy=0;exitPerimeter=0;" edge="1" parent="1" source="lkx-MOZj-w0_yK4KZ_88-2" target="lkx-MOZj-w0_yK4KZ_88-13">
          <mxGeometry width="50" height="50" relative="1" as="geometry">
            <mxPoint x="209.36000000000013" y="183.36" as="sourcePoint" />
            <mxPoint x="567.3600000000001" y="267.98" as="targetPoint" />
          </mxGeometry>
        </mxCell>
      </root>
    </mxGraphModel>
  </diagram>
  <diagram id="XWNrpdyqmeYDE0tnVxE3" name="Page-2">
    <mxGraphModel dx="1234" dy="478" grid="1" gridSize="10" guides="1" tooltips="1" connect="1" arrows="1" fold="1" page="1" pageScale="1" pageWidth="850" pageHeight="1100" math="0" shadow="0">
      <root>
        <mxCell id="G4CzUhye2_gJwvCWQ3XG-0" />
        <mxCell id="G4CzUhye2_gJwvCWQ3XG-1" parent="G4CzUhye2_gJwvCWQ3XG-0" />
        <mxCell id="BNIcvD6CPI9r1CrOl5gC-2" style="edgeStyle=orthogonalEdgeStyle;rounded=0;orthogonalLoop=1;jettySize=auto;html=1;entryX=0.011;entryY=0.368;entryDx=0;entryDy=0;entryPerimeter=0;" edge="1" parent="G4CzUhye2_gJwvCWQ3XG-1" source="G4CzUhye2_gJwvCWQ3XG-2" target="G4CzUhye2_gJwvCWQ3XG-13">
          <mxGeometry relative="1" as="geometry" />
        </mxCell>
        <mxCell id="G4CzUhye2_gJwvCWQ3XG-2" value="Profile Service" style="rounded=1;whiteSpace=wrap;html=1;" vertex="1" parent="G4CzUhye2_gJwvCWQ3XG-1">
          <mxGeometry x="425" y="140" width="120" height="60" as="geometry" />
        </mxCell>
        <mxCell id="G4CzUhye2_gJwvCWQ3XG-3" value="Client" style="rounded=0;whiteSpace=wrap;html=1;" vertex="1" parent="G4CzUhye2_gJwvCWQ3XG-1">
          <mxGeometry x="30" y="60" width="120" height="60" as="geometry" />
        </mxCell>
        <mxCell id="G4CzUhye2_gJwvCWQ3XG-4" value="Client" style="rounded=0;whiteSpace=wrap;html=1;" vertex="1" parent="G4CzUhye2_gJwvCWQ3XG-1">
          <mxGeometry x="30" y="160" width="120" height="60" as="geometry" />
        </mxCell>
        <mxCell id="G4CzUhye2_gJwvCWQ3XG-5" value="Client" style="rounded=0;whiteSpace=wrap;html=1;" vertex="1" parent="G4CzUhye2_gJwvCWQ3XG-1">
          <mxGeometry x="30" y="250" width="120" height="60" as="geometry" />
        </mxCell>
        <mxCell id="G4CzUhye2_gJwvCWQ3XG-10" value="" style="endArrow=classic;html=1;exitX=1;exitY=0.75;exitDx=0;exitDy=0;" edge="1" parent="G4CzUhye2_gJwvCWQ3XG-1" source="G4CzUhye2_gJwvCWQ3XG-3">
          <mxGeometry width="50" height="50" relative="1" as="geometry">
            <mxPoint x="240" y="260" as="sourcePoint" />
            <mxPoint x="420" y="160" as="targetPoint" />
          </mxGeometry>
        </mxCell>
        <mxCell id="G4CzUhye2_gJwvCWQ3XG-11" value="" style="endArrow=classic;html=1;exitX=1;exitY=0.5;exitDx=0;exitDy=0;" edge="1" parent="G4CzUhye2_gJwvCWQ3XG-1" source="G4CzUhye2_gJwvCWQ3XG-4">
          <mxGeometry width="50" height="50" relative="1" as="geometry">
            <mxPoint x="240" y="260" as="sourcePoint" />
            <mxPoint x="420" y="180" as="targetPoint" />
          </mxGeometry>
        </mxCell>
        <mxCell id="G4CzUhye2_gJwvCWQ3XG-12" value="" style="endArrow=classic;html=1;exitX=0.994;exitY=0.389;exitDx=0;exitDy=0;exitPerimeter=0;entryX=-0.042;entryY=0.867;entryDx=0;entryDy=0;entryPerimeter=0;" edge="1" parent="G4CzUhye2_gJwvCWQ3XG-1" source="G4CzUhye2_gJwvCWQ3XG-5" target="G4CzUhye2_gJwvCWQ3XG-2">
          <mxGeometry width="50" height="50" relative="1" as="geometry">
            <mxPoint x="240" y="260" as="sourcePoint" />
            <mxPoint x="290" y="210" as="targetPoint" />
          </mxGeometry>
        </mxCell>
        <mxCell id="G4CzUhye2_gJwvCWQ3XG-13" value="&lt;span&gt;name,&lt;/span&gt;&lt;br&gt;&lt;span&gt;employeeId,&lt;/span&gt;&lt;br&gt;&lt;span&gt;nobileNo,&lt;/span&gt;&lt;br&gt;&lt;span&gt;location,&lt;/span&gt;&lt;br&gt;&lt;span&gt;salary,&lt;/span&gt;&lt;br&gt;&lt;span&gt;department,&lt;/span&gt;&lt;br&gt;&lt;span&gt;managerName,&lt;/span&gt;&lt;br&gt;&lt;span&gt;managerId,&lt;/span&gt;&lt;br&gt;&lt;span&gt;workLocation,&lt;/span&gt;&lt;br&gt;&lt;span&gt;isnewHire,&lt;/span&gt;&lt;br&gt;&lt;span&gt;Tenure&lt;/span&gt;" style="shape=process;whiteSpace=wrap;html=1;backgroundOutline=1;" vertex="1" parent="G4CzUhye2_gJwvCWQ3XG-1">
          <mxGeometry x="600" y="70" width="120" height="270" as="geometry" />
        </mxCell>
        <mxCell id="BNIcvD6CPI9r1CrOl5gC-3" value="/Profile" style="text;html=1;strokeColor=none;fillColor=none;align=center;verticalAlign=middle;whiteSpace=wrap;rounded=0;" vertex="1" parent="G4CzUhye2_gJwvCWQ3XG-1">
          <mxGeometry x="620" y="50" width="40" height="20" as="geometry" />
        </mxCell>
      </root>
    </mxGraphModel>
  </diagram>
</mxfile>
